<svg width="26" height="26" viewBox="0 0 26 26" fill="none" xmlns="http://www.w3.org/2000/svg">
<mask id="mask0" style="mask-type:alpha" maskUnits="userSpaceOnUse" x="1" y="5" width="24" height="16">
<path d="M1.08398 7.41667C1.08398 6.3121 1.97941 5.41667 3.08398 5.41667H22.9173C24.0219 5.41667 24.9173 6.3121 24.9173 7.41667V18.5833C24.9173 19.6879 24.0219 20.5833 22.9173 20.5833H3.08399C1.97942 20.5833 1.08398 19.6879 1.08398 18.5833V7.41667Z" fill="#3F51B5"/>
</mask>
<g mask="url(#mask0)">
<path d="M1.08203 5.41675H24.9154V20.5834H1.08203V5.41675Z" fill="#3F51B5"/>
<path d="M1.08398 7.70034L12.3561 14.5898L14.0509 11.8165L3.57998 5.41667H1.08398V7.70034Z" fill="white"/>
<path d="M24.9155 5.41667H22.9607L12.4902 11.8159L14.1846 14.5898L24.9155 8.03075V5.41667Z" fill="white"/>
<path d="M14.1846 10.9801L12.4902 13.7535L23.6648 20.5833H24.9155V17.5386L14.1846 10.9801Z" fill="white"/>
<path d="M1.08398 17.8701V20.5833H2.8769L14.0509 13.754L12.3566 10.9801L1.08398 17.8701Z" fill="white"/>
<path d="M1.08398 10.8333H24.9173V15.1667H1.08398V10.8333Z" fill="white"/>
<path d="M10.834 5.41667H15.1673V20.5833H10.834V5.41667Z" fill="white"/>
<path d="M9.32707 10.8333L1.08398 5.7953V7.06496L7.24923 10.8333H9.32707ZM24.0014 5.41667L15.1386 10.8333H17.2159L24.9173 6.1268V5.41667H24.0014ZM17.9201 15.1667L24.9173 19.4431V18.1735L19.9974 15.1667H17.9201ZM8.6229 15.1667L1.08398 19.7741V20.5833H1.83798L10.7002 15.1667H8.6229ZM1.08398 11.9167H24.9173V14.0833H1.08398V11.9167Z" fill="#E53935"/>
<path d="M11.918 5.4166H14.0846V20.5833H11.918V5.4166Z" fill="#E53935"/>
</g>
</svg>
